# xmcd
#
# Track frame offsets:
#	150
#	12495
#	30147
#	43901
#	57002
#	71965
#	89863
#	104095
#	117121
#	136490
#	149677
#	169075
#	183805
#	197922
#
# Disc length: 2838 seconds
# Revision: 0
# Processed by: cddbd v1.5.2PL0 Copyright (c) Steve Scherf et al.
# Submitted via: dBpowerAMP V12.0
#
DISCID=d30b140e
DTITLE=Gabe Nieto - Love On The Border
DYEAR=2007
DGENRE=Country
TTITLE0=Cowboy Up
TTITLE1=El Paso Skyline
TTITLE2=Lo Mucho Que Te Quiero
TTITLE3=I Love You A Thousand Ways
TTITLE4=Another Lonely Road Song
TTITLE5=Los Hombres No Deben Llorar
TTITLE6=Moonlight, Roses, And Wine
TTITLE7=She's Been Known To Throw A Cowboy
TTITLE8=I Love You Too Much (To Just Be Your Friend)
TTITLE9=It's Gonna Take Forever
TTITLE10=Circles
TTITLE11=Latin Lady
TTITLE12=Ride Cowboy Ride
TTITLE13=Another Lonely Road Song (Spanish Version)
EXTD=
EXTT0=
EXTT1=
EXTT2=
EXTT3=
EXTT4=
EXTT5=
EXTT6=
EXTT7=
EXTT8=
EXTT9=
EXTT10=
EXTT11=
EXTT12=
EXTT13=
PLAYORDER=
